PathFileType	4	(X/Y/Z)	c:/Users/goper/Files/vsCode/490R/osim_files/A05/A05_Fast_06.trc
DataRate	CameraRate	NumFrames	NumMarkers	Units                	OrigDataRate	OrigDataStartFrame	OrigNumFrames
250.00	250.00	9	36	mm	250.0	1451	2320
                Frame#	Time	LPSIS			LASIS			LTH1			LTH2			LTH3			LTH4			LLFE			LMFE			LSH1			LSH2			LSH3			LSH4			LLMAL			LMMAL			LCAL			LMTP5			LTOE			LMTP1			RPSIS			RASIS			RTH1			RTH2			RTH3			RTH4			RLFE			RMFE			RSH1			RSH2			RSH3			RSH4			RLMAL			RMMAL			RCAL			RMTP1			RTOE			RMTP5		
		X1	Y1	Z1	X2	Y2	Z2	X3	Y3	Z3	X4	Y4	Z4	X5	Y5	Z5	X6	Y6	Z6	X7	Y7	Z7	X8	Y8	Z8	X9	Y9	Z9	X10	Y10	Z10	X11	Y11	Z11	X12	Y12	Z12	X13	Y13	Z13	X14	Y14	Z14	X15	Y15	Z15	X16	Y16	Z16	X17	Y17	Z17	X18	Y18	Z18	X19	Y19	Z19	X20	Y20	Z20	X21	Y21	Z21	X22	Y22	Z22	X23	Y23	Z23	X24	Y24	Z24	X25	Y25	Z25	X26	Y26	Z26	X27	Y27	Z27	X28	Y28	Z28	X29	Y29	Z29	X30	Y30	Z30	X31	Y31	Z31	X32	Y32	Z32	X33	Y33	Z33	X34	Y34	Z34	X35	Y35	Z35	X36	Y36	Z36

1451	5.80000	-1889.28015	1030.45874	327.57697	-2071.32568	994.37054	451.40259	0.00000	0.00000	0.00000	-2038.58972	664.71014	507.62421	-2068.12646	727.22272	518.34222	-2084.54492	688.47925	515.78680	-2145.93091	519.09027	500.69455	-2140.52515	509.47824	400.16772	-2117.20337	421.18692	519.60583	-2119.36963	378.00900	524.87695	-2175.59717	415.64355	503.03391	-2169.73779	373.00833	512.24353	-2148.43530	154.60736	534.44598	-2140.70288	146.62726	445.59439	-2068.18408	92.25971	490.59125	-2279.83887	101.51471	557.04218	-2324.07422	120.21066	492.59705	-2285.96143	106.98380	447.98676	-1904.15820	1032.74109	245.22894	-2094.41895	974.66260	158.16269	-2020.92896	599.18292	116.12334	-2026.09546	559.64191	130.09863	-2072.98096	607.36572	146.13431	-2068.01367	561.21228	159.51796	-1993.27441	522.49634	129.27827	-1998.42993	502.26892	273.72412	-1915.74158	268.97409	134.72231	-1905.92200	224.17546	145.20203	-1973.20361	252.17313	151.23589	-1955.04077	208.34450	154.14876	-1883.34717	114.04807	165.29469	-1926.69580	134.97290	256.52878	-1823.60742	70.82499	244.67038	-2036.51526	54.27126	245.17958	-2068.57764	63.74926	189.78200	-2001.16650	43.92504	128.46947
1452	5.80400	-1893.09973	1030.67151	327.49661	-2075.27637	993.47919	451.57291	0.00000	0.00000	0.00000	-2041.87610	664.10565	508.22037	-2071.65381	726.51123	518.64008	-2088.00000	687.76477	516.04712	-2148.92676	518.20099	501.08038	-2142.99268	508.34213	400.61426	-2122.16650	419.85272	520.32758	-2125.16895	376.76178	525.60760	-2180.39502	415.37808	503.31497	-2175.57617	372.65399	512.60065	-2158.33472	153.93236	535.29669	-2150.09912	145.66759	446.45984	-2078.94189	90.12038	491.98984	-2290.44507	102.00782	556.97217	-2334.33154	122.72025	492.15308	-2296.26392	108.70756	447.88507	-1908.03247	1032.05347	246.10326	-2096.80444	975.26074	156.54478	-2022.85168	598.87244	116.21690	-2027.89441	559.34680	130.17563	-2075.11646	606.94220	146.08070	0.00000	0.00000	0.00000	-1994.34607	522.46515	129.54164	-2000.29028	501.95932	273.85022	-1916.52625	269.01633	134.83504	-1906.43176	224.31187	145.34294	-1973.73999	251.97174	151.31813	-1955.44800	208.26407	154.20647	-1883.52710	114.20707	165.35483	-1926.88074	134.99249	256.55429	-1823.65723	70.92339	244.70245	-2036.56775	54.29454	245.16161	-2068.60864	63.68467	189.73883	-2001.17041	43.89146	128.43813
1453	5.80800	0.00000	0.00000	0.00000	-2079.31226	992.66595	451.76874	0.00000	0.00000	0.00000	-2045.33350	663.44495	508.76920	-2075.18701	725.79602	518.94800	-2091.44629	687.03589	516.36609	-2152.08032	517.43616	501.52646	-2145.49902	507.23898	401.09293	-2127.15039	418.50992	521.02679	-2130.88940	375.56284	526.34686	-2185.37622	415.12183	503.58432	-2181.40308	372.40607	513.01379	-2166.77979	152.87234	537.57458	-2159.49561	144.88783	447.18335	-2089.86157	87.53313	493.64951	-2301.44409	103.91168	556.92004	-2344.36792	125.29201	491.71307	-2303.82080	110.12449	447.03860	-1911.40186	1031.72266	246.77623	-2099.94678	974.85803	156.63968	-2024.84033	598.59076	116.26796	-2029.80383	559.03467	130.23856	-2077.14868	606.50684	146.09239	0.00000	0.00000	0.00000	-1996.40417	522.90601	130.02922	-2002.28430	501.70596	274.01843	-1917.19568	269.14969	134.95345	-1906.92688	224.48103	145.40086	-1974.39832	251.79663	151.42790	-1955.90515	208.19859	154.24518	-1883.67603	114.39500	165.38046	-1927.11743	135.04901	256.62012	-1823.70410	70.99457	244.71977	-2036.57703	54.31916	245.13425	-2068.61182	63.62916	189.68497	-2001.16406	43.86740	128.41168
1454	5.81200	-1901.09900	1029.91077	328.91650	-2083.30737	991.86163	451.92059	0.00000	0.00000	0.00000	-2049.17285	662.91199	509.54544	-2078.60376	725.12830	519.24036	-2094.78711	686.28320	516.72650	-2155.08740	516.62018	501.90607	-2148.35254	506.22372	401.60617	-2132.00073	417.30399	521.63165	-2136.66284	374.42130	527.01862	-2190.20947	414.91830	503.91891	-2186.95093	372.14462	513.35779	-2176.45337	152.39604	538.06720	-2168.25562	144.07863	447.90961	-2099.27100	84.40231	495.88712	-2311.24658	105.52235	556.59570	-2354.25049	127.91669	491.35373	-2314.92749	112.27039	447.50284	-1914.88000	1031.30322	247.43903	-2103.09351	974.57605	156.64725	-2026.74182	598.27185	116.40791	-2031.67432	558.77557	130.37042	-2079.24438	606.08295	146.08044	0.00000	0.00000	0.00000	-1998.07263	522.73962	130.08302	-2004.17603	501.39859	274.12793	-1917.72522	268.81903	135.03108	-1907.42676	224.58830	145.46817	-1975.00867	251.70334	151.42574	-1956.34351	208.12436	154.27589	-1884.17419	115.04105	165.85597	-1927.31494	135.09880	256.67371	-1823.70349	71.11089	244.72903	-2036.59583	54.34395	245.10555	-2068.59961	63.55910	189.63446	-2001.12769	43.81832	128.40674
1455	5.81600	0.00000	0.00000	0.00000	-2087.37085	991.00433	452.16656	0.00000	0.00000	0.00000	-2052.15552	662.67633	509.62335	-2081.97314	724.35077	519.61420	-2098.38013	685.55463	517.17181	-2158.34985	515.88031	502.48010	-2151.17212	505.25003	402.09488	-2136.98560	416.09930	522.28320	-2142.26367	373.33350	527.61511	-2194.97070	414.69666	504.30371	-2192.57080	371.87527	513.76782	-2185.77368	152.05551	538.48010	-2183.96948	146.08524	447.31696	-2109.61011	82.92411	496.68478	-2322.20312	107.78648	556.71014	-2363.84277	130.47690	491.10013	-2322.45776	112.86029	448.01999	-1917.74023	1031.19202	248.02240	-2106.13745	974.15411	156.76219	-2028.73865	598.06311	116.52527	-2033.60059	558.48566	130.48004	-2081.25879	605.62390	146.10753	0.00000	0.00000	0.00000	-1999.39685	521.88593	129.96725	-2006.12598	501.13678	274.27737	-1918.51770	268.90707	135.04681	-1907.82983	224.71815	145.53868	-1975.62292	251.55115	151.44543	-1956.80151	208.09178	154.28931	-1884.54309	115.90470	165.82777	-1927.50366	135.14381	256.66837	-1823.72314	71.26090	244.71275	-2036.65881	54.36658	245.09642	-2068.07300	63.24374	189.55664	-2001.10645	43.80126	128.38284
1456	5.82000	0.00000	0.00000	0.00000	-2091.35083	990.16931	452.48029	0.00000	0.00000	0.00000	-2055.45654	661.87665	510.06705	-2085.35205	723.55096	520.03918	-2101.50220	684.75665	517.55829	-2161.62524	515.11200	502.91238	-2154.53882	504.36353	402.68225	-2141.78320	414.96924	522.83356	-2147.89282	372.32877	528.09619	-2199.99756	414.50406	504.62946	-2198.15796	371.33307	514.35333	-2197.46265	151.52702	538.20795	-2193.20361	145.82625	447.72244	-2120.71021	83.10702	495.72720	-2332.50073	110.48273	558.29041	-2372.91895	132.83762	490.80841	-2331.95996	114.84286	448.02167	-1921.66895	1030.52966	248.91185	-2109.22046	973.66553	157.00204	-2030.73853	597.75092	116.69718	-2035.46399	558.19385	130.55263	-2083.31934	605.15570	146.17825	0.00000	0.00000	0.00000	-2001.83411	521.49518	130.02850	-2007.96130	500.84335	274.39758	-1919.10510	269.07120	135.13702	-1908.49731	224.81409	145.57396	-1976.33459	251.43471	151.46831	-1957.27112	208.08038	154.30249	-1884.66382	116.11088	165.80394	-1927.74329	135.17511	256.69565	-1823.72217	71.39452	244.69057	-2036.62415	54.33289	245.06610	-2068.75659	63.52346	189.59584	-2001.12708	43.78249	128.36440
1457	5.82400	-1912.07800	1028.28992	331.13882	-2095.20874	989.17548	452.67532	-2032.97168	695.27765	509.70551	-2058.88184	661.03705	510.50769	-2088.59985	722.71753	520.47626	-2104.87915	683.91901	518.02765	-2164.95898	514.30963	503.47449	-2157.87720	503.55750	403.26822	-2146.78174	413.92545	523.31732	-2153.50024	371.39188	528.61011	-2204.65967	414.31488	505.07538	-2203.84985	371.45728	514.53351	-2204.59375	150.29625	539.18170	-2202.01489	145.58615	447.97592	-2129.70703	79.99411	497.49124	-2342.01709	112.34943	558.28644	-2381.93628	135.38959	490.78687	-2341.24512	116.74260	448.04379	-1925.09924	1030.07983	249.73138	-2112.45093	973.24756	157.22752	-2032.71484	597.55005	116.89926	-2037.38330	557.94159	130.65524	-2085.29810	604.70337	146.27589	0.00000	0.00000	0.00000	-2002.93518	521.48065	130.25172	-2009.86157	500.53854	274.55643	-1919.31470	269.60547	135.36098	-1909.01562	224.92735	145.61121	-1976.98792	251.28398	151.48610	-1957.68567	208.00229	154.28775	-1885.11560	116.19420	165.89737	-1928.71301	135.78041	257.66879	-1823.75537	71.47785	244.73119	-2036.62109	54.31931	245.02818	-2067.83154	63.01952	189.61102	-2001.14124	43.73442	128.34508
1458	5.82800	-1915.54773	1027.70764	332.02740	-2099.17407	988.41211	453.04730	0.00000	0.00000	0.00000	-2061.99170	659.55304	511.13812	-2091.90894	721.96228	520.95880	-2108.14111	683.11237	518.49780	-2168.52368	513.60864	504.04620	-2161.50806	502.84073	403.76138	-2151.62915	412.93204	523.75568	-2158.86694	370.57672	528.96185	-2209.74854	414.21039	505.48383	-2209.24268	371.27213	514.95691	-2213.02856	150.24074	539.42133	0.00000	0.00000	0.00000	-2139.04614	78.86295	497.70590	-2351.26074	114.10443	558.42413	-2390.62964	137.79715	490.88690	-2350.23071	118.59171	448.08954	-1928.61340	1029.61938	250.47452	-2115.57788	972.68054	157.56412	-2034.79370	597.34247	117.07675	-2039.39771	557.67084	130.75407	-2087.34351	604.29340	146.35263	0.00000	0.00000	0.00000	-2005.33569	521.13354	130.34370	-2011.82788	500.30106	274.65909	-1920.56091	269.63440	135.30983	-1909.56433	225.05182	145.59023	-1977.48914	251.15645	151.46187	-1958.17224	207.97017	154.29004	-1885.26733	116.36874	165.95567	-1928.43469	135.30637	256.37415	-1823.84961	71.54726	244.75049	-2036.66418	54.34283	245.02463	-2068.03101	63.00629	189.51103	-2001.11902	43.66952	128.30717
1459	5.83200	-1919.41577	1027.15601	332.88562	-2103.06445	987.53302	453.31500	0.00000	0.00000	0.00000	-2065.37573	658.72705	511.55722	-2095.20312	721.05353	521.43286	-2111.54321	682.30103	519.00751	-2172.24658	512.99011	504.56384	-2165.44238	502.90387	403.76147	-2156.69556	412.11478	524.16602	-2164.45654	369.76675	529.39075	-2214.65063	414.03546	505.90390	-2214.77637	371.15762	515.29797	-2221.34741	150.30609	539.65137	0.00000	0.00000	0.00000	-2148.24805	77.89720	497.87073	-2360.47656	116.21901	556.86389	-2398.77197	139.83018	490.98065	-2359.06030	120.45095	448.26700	-1932.09802	1029.14880	251.32863	-2118.73926	972.33820	157.57394	-2036.72791	597.08307	117.27262	-2041.29895	557.41486	130.87192	-2089.46069	603.91119	146.50558	0.00000	0.00000	0.00000	-2006.45959	521.07031	130.65192	-2013.78357	499.99380	274.88437	-1921.24072	269.78250	135.36029	-1909.49402	224.24992	145.50562	-1978.06897	251.03580	151.44649	-1958.59607	207.93849	154.28896	-1885.25281	115.77231	165.96103	-1929.10181	136.14783	257.23853	-1823.92053	71.68909	244.76801	-2036.68555	54.33038	244.98903	-2068.04126	62.92583	189.49075	-2001.13330	43.64159	128.27451
